<svg width="33" height="27" viewBox="0 0 33 27" fill="none" xmlns="http://www.w3.org/2000/svg">
<path d="M17.4278 10.245H15.8593C15.1207 10.245 14.5222 9.65113 14.5222 8.91873V5.47931C14.5222 4.77866 13.9496 4.21065 13.2432 4.21065H11.3589V0.00195312H13.2431C16.293 0.00195312 18.7651 2.45433 18.7651 5.47949V8.91891C18.7649 9.65113 18.1663 10.245 17.4278 10.245Z" fill="white"/>
<path d="M13.2432 0H11.3795C14.4292 0 16.9015 2.45237 16.9015 5.47754V8.91696C16.9015 9.60006 16.3809 10.162 15.7119 10.2349C15.7603 10.2402 15.8095 10.2434 15.8594 10.2434H17.428C18.1665 10.2434 18.765 9.64953 18.765 8.91714V5.47772C18.765 2.45237 16.2929 0 13.2432 0Z" fill="white"/>
<path opacity="0.31" d="M18.6135 4.20554C18.2344 2.62477 17.1651 1.31036 15.7383 0.591797C14.6985 1.77143 14.1824 3.37508 14.4316 5.01206C14.4892 5.15641 14.5217 5.31317 14.5217 5.47774L15.3305 8.82229C15.5027 9.53465 16.2246 9.97355 16.9427 9.8026L18.4682 9.43959C18.5435 9.42168 18.6152 9.3965 18.684 9.36706C18.7353 9.22644 18.7646 9.07517 18.7646 8.91699V5.47757C18.7646 5.24774 18.7487 5.02164 18.721 4.79926L18.6477 4.49584C18.6243 4.39866 18.6141 4.30148 18.6135 4.20554Z" fill="white"/>
<path d="M15.8594 10.2431H17.428C18.1665 10.2431 18.7651 9.64918 18.7651 8.91678V5.47736C18.7651 4.77671 19.3377 4.2087 20.044 4.2087H21.9281V0H20.044C16.9943 0 14.522 2.45237 14.522 5.47754V8.91696C14.5224 9.64917 15.1211 10.2431 15.8594 10.2431Z" fill="white"/>
<path d="M20.0439 0H21.9076C18.8579 0 16.3856 2.45237 16.3856 5.47754V8.91696C16.3856 9.60006 16.9062 10.162 17.5752 10.2349C17.5267 10.2402 17.4775 10.2434 17.4277 10.2434H15.8591C15.1206 10.2434 14.522 9.64953 14.522 8.91714V5.47772C14.5219 2.45237 16.9941 0 20.0439 0Z" fill="white"/>
<path d="M18.4558 1.20373C18.4597 1.20001 18.4639 1.19628 18.468 1.19238C18.0244 1.51318 17.6268 1.90421 17.3079 2.35358C16.9829 2.79922 16.7403 3.30179 16.5688 3.82528C16.4058 4.35197 16.3273 4.90366 16.3318 5.45269C16.342 5.99711 16.3566 6.54082 16.3856 7.08506V5.47787C16.3856 3.7485 17.194 2.20763 18.4558 1.20373Z" fill="white"/>
<path d="M2.07897 15.2966C1.29254 15.2966 0.654846 14.6642 0.654846 13.884V12.5004C0.654846 11.7203 1.29236 11.0877 2.07897 11.0877C2.78531 11.0877 3.35792 10.5197 3.35792 9.81907V5.47754C3.35792 2.45237 5.8302 0 8.87993 0H9.36012V4.2087H8.87993C8.17359 4.2087 7.60097 4.77671 7.60097 5.47736V9.81889C7.60079 12.8442 5.12851 15.2966 2.07897 15.2966Z" fill="white"/>
<path d="M2.16979 13.884V12.5004C2.16979 11.7203 2.8073 11.0877 3.59391 11.0877C4.30025 11.0877 4.87286 10.5197 4.87286 9.81907V5.37061C4.87286 2.71483 6.77843 0.50115 9.30702 0H8.87993C5.83021 0 3.35792 2.45237 3.35792 5.47754V9.81907C3.35792 10.5197 2.78531 11.0877 2.07897 11.0877C1.29254 11.0877 0.654846 11.7201 0.654846 12.5004V13.884C0.654846 14.6641 1.29236 15.2966 2.07897 15.2966C2.42418 15.2966 2.76135 15.2636 3.08905 15.2035C2.55201 15.0012 2.16979 14.4876 2.16979 13.884Z" fill="white"/>
<path opacity="0.31" d="M0.991816 12.7701L1.29019 14.1218C1.45842 14.8838 2.21768 15.3665 2.98587 15.1996C3.07687 15.1797 3.16769 15.1709 3.25725 15.1705C4.86605 14.8233 6.21258 13.7813 6.96165 12.3764C5.78442 11.3225 4.16775 10.785 2.50515 11.0141C2.37142 11.0611 2.22822 11.0881 2.07823 11.0881C1.31004 11.255 0.823589 12.0081 0.991816 12.7701Z" fill="white"/>
<path d="M9.35914 26.3847H8.87895C5.82923 26.3847 3.35695 23.9321 3.35695 20.907V16.5654C3.35695 15.8648 2.78433 15.2968 2.07799 15.2968C1.29156 15.2968 0.65387 14.6644 0.65387 13.8841V12.5005C0.65387 11.7204 1.29138 11.0879 2.07799 11.0879C5.12772 11.0879 7.6 13.5403 7.6 16.5654V20.907C7.6 21.6076 8.17261 22.1756 8.87895 22.1756H9.35914V26.3847Z" fill="white"/>
<path d="M7.07673 0.993505C7.08048 0.990136 7.08424 0.986768 7.08817 0.983398C6.63068 1.29374 6.21771 1.67713 5.88269 2.12189C5.5448 2.56434 5.28093 3.06283 5.0984 3.58881C4.92088 4.11656 4.82363 4.67109 4.82184 5.22615C4.82452 5.77819 4.84436 6.32581 4.87154 6.87572V5.37103C4.87154 3.58118 5.73806 1.99279 7.07673 0.993505Z" fill="white"/>
<path d="M7.07673 25.3912C7.08048 25.3944 7.08424 25.3977 7.08817 25.4011C6.63068 25.0908 6.21771 24.7074 5.88269 24.2628C5.5448 23.8202 5.28093 23.3217 5.0984 22.7959C4.92088 22.2681 4.82363 21.7134 4.82184 21.1585C4.82452 20.6065 4.84436 20.0589 4.87154 19.5088V21.0137C4.87154 22.8035 5.73806 24.3917 7.07673 25.3912Z" fill="white"/>
<path d="M4.87193 21.0137V17.9434H3.35699V20.9068C3.35699 23.932 5.82927 26.3845 8.879 26.3845H9.30609C6.7775 25.883 4.87193 23.6692 4.87193 21.0137Z" fill="white"/>
<path d="M15.8798 16.1406H17.4485C18.1871 16.1406 18.7856 16.7345 18.7856 17.4669V20.9063C18.7856 21.607 19.3582 22.175 20.0644 22.175H21.9485V26.3839H20.0644C17.0146 26.3839 14.5425 23.9313 14.5425 20.9062V17.4667C14.5427 16.7345 15.1413 16.1406 15.8798 16.1406Z" fill="white"/>
<path d="M20.0644 26.3842H21.9283C18.8784 26.3842 16.4061 23.9317 16.4061 20.9065V17.4671C16.4061 16.784 16.9269 16.222 17.5958 16.1491C17.5474 16.1438 17.4982 16.1406 17.4484 16.1406H15.8796C15.1413 16.1406 14.5425 16.7345 14.5425 17.4669V20.9063C14.5425 23.9317 17.0146 26.3842 20.0644 26.3842Z" fill="white"/>
<path opacity="0.31" d="M14.6938 22.1789C15.073 23.7597 16.1422 25.0741 17.569 25.7926C18.6086 24.6132 19.1249 23.0095 18.8757 21.3726C18.8181 21.2282 18.7856 21.0713 18.7856 20.9067L17.9768 17.5622C17.8045 16.8498 17.0828 16.4109 16.3646 16.5818L14.8391 16.9449C14.7637 16.9628 14.6922 16.9879 14.6232 17.0174C14.5719 17.158 14.5425 17.3091 14.5425 17.4675V20.9069C14.5425 21.1369 14.5585 21.3628 14.5862 21.5854L14.6596 21.8888C14.6831 21.986 14.6932 22.083 14.6938 22.1789Z" fill="white"/>
<path d="M17.4483 16.1416H15.8796C15.1412 16.1416 14.5425 16.7355 14.5425 17.4679V20.9073C14.5425 21.608 13.9699 22.176 13.2636 22.176H11.3795V26.3849H13.2636C16.3133 26.3849 18.7856 23.9323 18.7856 20.9071V17.4677C18.7856 16.7355 18.1869 16.1416 17.4483 16.1416Z" fill="white"/>
<path d="M13.2637 26.3842H11.4C14.4497 26.3842 16.922 23.9317 16.922 20.9065V17.4671C16.922 16.784 16.4014 16.222 15.7322 16.1491C15.7807 16.1438 15.8298 16.1406 15.8797 16.1406H17.4485C18.187 16.1406 18.7855 16.7345 18.7855 17.4669V20.9063C18.7859 23.9317 16.3134 26.3842 13.2637 26.3842Z" fill="white"/>
<path d="M14.8516 25.1811C14.8475 25.1849 14.8435 25.1888 14.8394 25.1925C15.283 24.8717 15.6804 24.4807 15.9993 24.0313C16.3245 23.5856 16.5671 23.0831 16.7384 22.5594C16.9014 22.0329 16.9799 21.481 16.9754 20.9318C16.9654 20.3874 16.9507 19.8439 16.9218 19.2998V20.907C16.9218 22.6362 16.113 24.1772 14.8516 25.1811Z" fill="white"/>
<path d="M31.2301 11.0879C32.0164 11.0879 32.6541 11.7203 32.6541 12.5005V13.8841C32.6541 14.6642 32.0166 15.2968 31.2301 15.2968C30.5238 15.2968 29.9512 15.8648 29.9512 16.5654V20.907C29.9512 23.9321 27.4789 26.3847 24.4292 26.3847H23.9488V22.1758H24.4292C25.1355 22.1758 25.7079 21.6078 25.7079 20.9071V16.5656C25.7079 13.5404 28.1802 11.0879 31.2301 11.0879Z" fill="white"/>
<path d="M31.1388 12.5007V13.8843C31.1388 14.6644 30.5013 15.2969 29.7146 15.2969C29.0083 15.2969 28.4357 15.865 28.4357 16.5656V21.0141C28.4357 23.6697 26.5303 25.8833 24.0015 26.3847H24.4288C27.4785 26.3847 29.9508 23.9321 29.9508 20.907V16.5654C29.9508 15.8648 30.5234 15.2968 31.2298 15.2968C32.016 15.2968 32.6537 14.6644 32.6537 13.8841V12.5005C32.6537 11.7204 32.0162 11.0879 31.2298 11.0879C30.8844 11.0879 30.5474 11.1209 30.2197 11.181C30.7565 11.3835 31.1388 11.8972 31.1388 12.5007Z" fill="white"/>
<path opacity="0.31" d="M32.3163 13.6148L32.0179 12.2632C31.8498 11.5012 31.0904 11.0185 30.3222 11.1853C30.2312 11.205 30.1404 11.2141 30.0508 11.2144C28.442 11.5616 27.0955 12.6037 26.3463 14.0085C27.5237 15.0624 29.1403 15.5999 30.8029 15.3708C30.9365 15.3238 31.0799 15.2968 31.2299 15.2968C31.998 15.13 32.4847 14.377 32.3163 13.6148Z" fill="white"/>
<path d="M23.9488 0H24.4292C27.4789 0 29.9512 2.45237 29.9512 5.47754V9.81907C29.9512 10.5197 30.5238 11.0877 31.2301 11.0877C32.0164 11.0877 32.6541 11.7201 32.6541 12.5004V13.884C32.6541 14.6641 32.0166 15.2966 31.2301 15.2966C28.1802 15.2966 25.7079 12.8442 25.7079 9.81907V5.47754C25.7079 4.77689 25.1355 4.20888 24.4292 4.20888H23.9488V0Z" fill="white"/>
<path d="M26.2306 25.3912C26.2268 25.3944 26.2229 25.3977 26.2193 25.4011C26.6768 25.0908 27.0896 24.7074 27.4246 24.2628C27.7627 23.8202 28.0264 23.3217 28.2089 22.7959C28.3862 22.2681 28.4837 21.7134 28.4856 21.1585C28.4829 20.6065 28.4629 20.0589 28.4357 19.5088V21.0137C28.4356 22.8035 27.5692 24.3917 26.2306 25.3912Z" fill="white"/>
<path d="M26.2306 0.993505C26.2268 0.990136 26.2229 0.986768 26.2193 0.983398C26.6768 1.29374 27.0896 1.67713 27.4246 2.12189C27.7627 2.56434 28.0264 3.06283 28.2089 3.58881C28.3862 4.11656 28.4837 4.67109 28.4856 5.22615C28.4829 5.77819 28.4629 6.32581 28.4357 6.87572V5.37103C28.4356 3.58118 27.5692 1.99279 26.2306 0.993505Z" fill="white"/>
<path d="M28.4357 5.37061V8.44099H29.9508V5.47754C29.9508 2.45237 27.4785 0 24.4288 0H24.0015C26.5303 0.50115 28.4357 2.71483 28.4357 5.37061Z" fill="white"/>
</svg>
